<svg xmlns="http://www.w3.org/2000/svg" viewBox="0 0 560 280" role="img" aria-label="Bengaluru office night landmark">
  <defs>
    <linearGradient id="sky" x1="0" y1="0" x2="1" y2="1">
      <stop offset="0" stop-color="#073b5a"/>
      <stop offset=".5" stop-color="#052044"/>
      <stop offset="1" stop-color="#030b1f"/>
    </linearGradient>
    <radialGradient id="glow" cx=".2" cy=".24" r=".7">
      <stop offset="0" stop-color="#00f0a8" stop-opacity=".55"/>
      <stop offset=".48" stop-color="#00b8ff" stop-opacity=".2"/>
      <stop offset="1" stop-color="#031226" stop-opacity="0"/>
    </radialGradient>
    <linearGradient id="gold" x1="0" y1="0" x2="0" y2="1">
      <stop offset="0" stop-color="#ffd25c"/>
      <stop offset=".55" stop-color="#f59e0b"/>
      <stop offset="1" stop-color="#8a3c08"/>
    </linearGradient>
  </defs>
  <rect width="560" height="280" fill="url(#sky)"/>
  <rect width="560" height="280" fill="url(#glow)"/>
  <g fill="#9afce4" opacity=".65">
    <circle cx="56" cy="44" r="2.5"/>
    <circle cx="142" cy="72" r="1.8"/>
    <circle cx="452" cy="36" r="2"/>
    <circle cx="504" cy="86" r="1.7"/>
  </g>
  <path d="M0 204c74-22 125-24 185-10 64 15 100 9 166-6 70-16 130-8 209 24v68H0z" fill="#031329"/>
  <g transform="translate(66 76)">
    <path d="M34 92h356v58H34z" fill="#09375c"/>
    <path d="M56 72h312v28H56z" fill="#0d4d78"/>
    <path d="M106 47h212v34H106z" fill="#11668a"/>
    <path d="M212 10c32 8 48 25 50 53h-98c2-28 18-45 48-53z" fill="url(#gold)"/>
    <path d="M122 36c22 6 35 20 36 45H88c1-25 13-39 34-45zm184 0c22 6 35 20 36 45h-70c1-25 13-39 34-45z" fill="url(#gold)"/>
    <g fill="#ffd778">
      <rect x="72" y="106" width="18" height="44" rx="2"/>
      <rect x="118" y="106" width="18" height="44" rx="2"/>
      <rect x="164" y="106" width="18" height="44" rx="2"/>
      <rect x="210" y="106" width="18" height="44" rx="2"/>
      <rect x="256" y="106" width="18" height="44" rx="2"/>
      <rect x="302" y="106" width="18" height="44" rx="2"/>
      <rect x="348" y="106" width="18" height="44" rx="2"/>
    </g>
    <path d="M20 150h384v18H20z" fill="#061d37"/>
    <path d="M36 168h352" stroke="#00f0a8" stroke-width="3" stroke-linecap="round" opacity=".8"/>
  </g>
  <path d="M0 236h560v44H0z" fill="#020817" opacity=".88"/>
</svg>
