<svg xmlns="http://www.w3.org/2000/svg" viewBox="0 0 560 280" role="img" aria-label="Mumbai office night skyline">
  <defs>
    <linearGradient id="sky" x1="0" y1="0" x2="1" y2="1">
      <stop offset="0" stop-color="#241247"/>
      <stop offset=".46" stop-color="#082050"/>
      <stop offset="1" stop-color="#030918"/>
    </linearGradient>
    <radialGradient id="sunset" cx=".74" cy=".18" r=".62">
      <stop offset="0" stop-color="#fb923c" stop-opacity=".75"/>
      <stop offset=".48" stop-color="#a855f7" stop-opacity=".24"/>
      <stop offset="1" stop-color="#020817" stop-opacity="0"/>
    </radialGradient>
    <linearGradient id="lit" x1="0" y1="0" x2="0" y2="1">
      <stop offset="0" stop-color="#fb923c"/>
      <stop offset="1" stop-color="#7c2d12"/>
    </linearGradient>
  </defs>
  <rect width="560" height="280" fill="url(#sky)"/>
  <rect width="560" height="280" fill="url(#sunset)"/>
  <g fill="#fde68a" opacity=".75">
    <circle cx="72" cy="52" r="1.7"/>
    <circle cx="184" cy="84" r="2"/>
    <circle cx="414" cy="42" r="2"/>
    <circle cx="508" cy="78" r="1.8"/>
  </g>
  <path d="M0 212c78-18 126-8 190-8 88 0 113-22 198-17 60 3 103 22 172 28v65H0z" fill="#020817" opacity=".72"/>
  <g transform="translate(42 70)">
    <rect x="0" y="82" width="38" height="84" fill="#0b1c3d"/>
    <rect x="54" y="58" width="42" height="108" fill="#102a58"/>
    <rect x="118" y="18" width="42" height="148" fill="#0e214b"/>
    <path d="M118 18h42l-21-28z" fill="url(#lit)"/>
    <rect x="182" y="72" width="52" height="94" fill="#102f63"/>
    <rect x="256" y="36" width="48" height="130" fill="#0b1c3d"/>
    <rect x="330" y="8" width="54" height="158" fill="#122f66"/>
    <path d="M338 8h38l-19-34z" fill="#fb923c"/>
    <rect x="414" y="64" width="38" height="102" fill="#0b1f46"/>
    <rect x="466" y="44" width="36" height="122" fill="#102a58"/>
    <g fill="#fef3c7" opacity=".78">
      <rect x="10" y="98" width="8" height="8"/>
      <rect x="72" y="78" width="8" height="8"/>
      <rect x="72" y="104" width="8" height="8"/>
      <rect x="132" y="42" width="8" height="8"/>
      <rect x="132" y="70" width="8" height="8"/>
      <rect x="198" y="92" width="8" height="8"/>
      <rect x="274" y="60" width="8" height="8"/>
      <rect x="274" y="90" width="8" height="8"/>
      <rect x="350" y="34" width="8" height="8"/>
      <rect x="350" y="66" width="8" height="8"/>
      <rect x="426" y="88" width="8" height="8"/>
      <rect x="478" y="72" width="8" height="8"/>
    </g>
    <path d="M-14 168h536" stroke="#fb923c" stroke-width="4" stroke-linecap="round"/>
  </g>
  <path d="M0 236h560v44H0z" fill="#020817" opacity=".88"/>
</svg>
